<svg xmlns="http://www.w3.org/2000/svg" width="150" height="150" viewBox="0 0 150 150">
  <defs>
    <style>
      .cls-1 {
        fill-rule: evenodd;
      }
    </style>
  </defs>
  <path id="Ballard_Beer_Blog" data-name="Ballard Beer Blog" class="cls-1" d="M8.98,19.371V43.236L8.4,45h11.95l2.3-2.268V33.374l-2.34-2.3,2.34-2.268V19.875l-2.3-2.232H8.4Zm4.535,3.312,0.54-.54h3.492l0.54,0.54V28.3l-0.54.5H14.055l-0.54-.5V22.683Zm4.571,11.231v5.939l-0.54.54H14.055l-0.54-.54V33.913l0.54-.54h3.492ZM41.45,43.164L35.834,19.227l0.5-1.584H30.111l0.5,1.584L25,43.164,24.1,45h5.723l-0.4-1.08,1.008-4.175,0.54-.54h4.5l0.54,0.54,1.008,4.175L36.626,45H42.35ZM31.479,34.2l1.764-8.747L35.006,34.2l-0.432.4H31.911ZM58.55,39.925l-1.872.5H49.695l-0.54-.5V19.407l0.54-1.764H44.044l0.576,1.764V43.272L44.044,45H57.722Zm16.416,0-1.872.5H66.111l-0.54-.5V19.407l0.54-1.764H60.459l0.576,1.764V43.272L60.459,45H74.138Zm18.144,3.24L87.494,19.227,88,17.643H81.77l0.5,1.584L76.659,43.164,75.759,45h5.723l-0.4-1.08,1.008-4.175,0.54-.54h4.5l0.54,0.54,1.008,4.175L88.286,45h5.723ZM83.138,34.2L84.9,25.455,86.666,34.2l-0.432.4H83.57ZM101.354,45l-0.576-1.728v-8.1l0.54-.54h1.476l0.36,0.432,1.944,8.243L104.7,45h5.651l-0.72-1.836-1.98-8.531,2.3-2.3V19.875l-2.3-2.232H95.7l0.576,1.764V43.272L95.7,45h5.651Zm-0.036-14.9-0.54-.5V22.755l0.54-.5h3.528l0.54,0.5v6.839l-0.54.5h-3.528Zm12.241-10.727V43.236L113.055,45h11.95l2.3-2.268V19.875l-2.3-2.232h-11.95Zm4.571,3.312,0.54-.54h3.491l0.54,0.54v17.17l-0.54.54H118.67l-0.54-.54V22.683ZM8.98,62.571V86.436L8.4,88.2h11.95l2.3-2.268V76.574l-2.34-2.3L22.658,72V63.075l-2.3-2.232H8.4Zm4.535,3.312,0.54-.54h3.492l0.54,0.54V71.5l-0.54.5H14.055l-0.54-.5V65.883Zm4.571,11.231v5.939l-0.54.54H14.055l-0.54-.54V77.113l0.54-.54h3.492ZM39.434,88.2l0.828-5.147-1.872.54H31.371l-0.54-.54v-5.9l0.54-.5h2.3l1.764,0.576V71.5l-1.764.576h-2.3l-0.54-.54V65.883l0.54-.54H38.39l1.872,0.54-0.828-5.039H25.756l0.576,1.728V86.436L25.756,88.2H39.434Zm16.416,0,0.828-5.147-1.872.54H47.787l-0.54-.54v-5.9l0.54-.5h2.3l1.764,0.576V71.5l-1.764.576h-2.3l-0.54-.54V65.883l0.54-.54h7.019l1.872,0.54L55.85,60.843H42.171l0.576,1.728V86.436L42.171,88.2H55.85Zm8.389,0-0.576-1.728v-8.1l0.54-.54h1.476l0.36,0.432,1.944,8.243-0.4,1.692h5.651l-0.72-1.836-1.98-8.531,2.3-2.3V63.075l-2.3-2.232H58.587l0.576,1.764V86.472L58.587,88.2h5.651ZM64.2,73.3l-0.54-.5V65.955l0.54-.5H67.73l0.54,0.5v6.839l-0.54.5H64.2ZM8.98,105.771v23.865L8.4,131.4h11.95l2.3-2.268v-9.359l-2.34-2.3,2.34-2.268v-8.927l-2.3-2.232H8.4Zm4.535,3.312,0.54-.54h3.492l0.54,0.54V114.7l-0.54.5H14.055l-0.54-.5v-5.615Zm4.571,11.23v5.94l-0.54.54H14.055l-0.54-.54v-5.94l0.54-.54h3.492Zm22.175,6.012-1.872.5H31.407l-0.54-.5V105.807l0.54-1.764H25.756l0.576,1.764v23.865L25.756,131.4H39.434ZM53.87,104.043H44.763l-2.3,2.232v22.857l2.3,2.268H53.87l2.268-2.268V106.275Zm-2.34,5.112v17.17l-0.54.5H47.535l-0.54-.5v-17.17l0.54-.5H50.99Zm10.3,22.245h9.107l2.268-2.268V118.514l0.576-1.8H66.363l1.008,4.607h1.3v4.932l-0.5.54H64.635l-0.5-.54v-17.17l0.5-.54h3.528l0.5,0.54v1.8l-0.612,1.727h5.723L73.2,110.883v-4.608l-2.268-2.232H61.827l-2.3,2.232v22.857Z"/>
</svg>
